<svg width="18" height="18" viewBox="0 0 18 18" fill="none" xmlns="http://www.w3.org/2000/svg">
<path d="M13.17 15.75C13.0501 15.7505 12.9318 15.7222 12.825 15.6675L9.00001 13.665L5.17501 15.6675C5.0508 15.7328 4.91076 15.762 4.77081 15.7517C4.63086 15.7414 4.49661 15.692 4.38333 15.6092C4.27004 15.5264 4.18226 15.4134 4.12997 15.2832C4.07767 15.153 4.06296 15.0107 4.08751 14.8725L4.83751 10.65L1.74751 7.65003C1.6511 7.55382 1.58271 7.43318 1.54968 7.30105C1.51664 7.16892 1.52021 7.03029 1.56001 6.90003C1.60347 6.76674 1.68344 6.6483 1.79082 6.55815C1.8982 6.468 2.0287 6.40976 2.16751 6.39003L6.44251 5.76753L8.32501 1.92003C8.38642 1.79323 8.48231 1.68629 8.60169 1.61146C8.72107 1.53663 8.85911 1.49695 9.00001 1.49695C9.1409 1.49695 9.27894 1.53663 9.39832 1.61146C9.5177 1.68629 9.61359 1.79323 9.67501 1.92003L11.58 5.76003L15.855 6.38253C15.9938 6.40226 16.1243 6.4605 16.2317 6.55065C16.3391 6.6408 16.419 6.75924 16.4625 6.89253C16.5023 7.02279 16.5059 7.16142 16.4728 7.29355C16.4398 7.42568 16.3714 7.54632 16.275 7.64253L13.185 10.6425L13.935 14.865C13.9618 15.0056 13.9478 15.151 13.8946 15.2839C13.8414 15.4168 13.7514 15.5317 13.635 15.615C13.4992 15.7102 13.3357 15.7577 13.17 15.75Z" fill="#69B99D"/>
</svg>
