<svg width="28" height="28" viewBox="0 0 28 28" fill="none" xmlns="http://www.w3.org/2000/svg">
<path fill-rule="evenodd" clip-rule="evenodd" d="M8.22681 0.666504H19.7868C24.3068 0.666504 27.3335 3.83984 27.3335 8.55984V19.4545C27.3335 24.1598 24.3068 27.3332 19.7868 27.3332H8.22681C3.70681 27.3332 0.666809 24.1598 0.666809 19.4545V8.55984C0.666809 3.83984 3.70681 0.666504 8.22681 0.666504ZM13.2401 17.9865L19.5735 11.6532C20.0268 11.1998 20.0268 10.4665 19.5735 9.99984C19.1201 9.5465 18.3735 9.5465 17.9201 9.99984L12.4135 15.5065L10.0801 13.1732C9.62681 12.7198 8.88015 12.7198 8.42681 13.1732C7.97348 13.6265 7.97348 14.3598 8.42681 14.8265L11.6001 17.9865C11.8268 18.2132 12.1201 18.3198 12.4135 18.3198C12.7201 18.3198 13.0135 18.2132 13.2401 17.9865Z" fill="#69B99D"/>
</svg>
